<?xml version="1.0" encoding="UTF-8" standalone="no"?>
<!-- Created with Inkscape (http://www.inkscape.org/) -->

<svg
   xmlns:dc="http://purl.org/dc/elements/1.1/"
   xmlns:cc="http://creativecommons.org/ns#"
   xmlns:rdf="http://www.w3.org/1999/02/22-rdf-syntax-ns#"
   xmlns:svg="http://www.w3.org/2000/svg"
   xmlns="http://www.w3.org/2000/svg"
   xmlns:sodipodi="http://sodipodi.sourceforge.net/DTD/sodipodi-0.dtd"
   xmlns:inkscape="http://www.inkscape.org/namespaces/inkscape"
   width="9in"
   height="72in"
   viewBox="0 0 228.6 1828.8001"
   version="1.1"
   id="svg8"
   inkscape:version="0.92.3 (2405546, 2018-03-11)"
   sodipodi:docname="KidWallRuler2.svg">
  <defs
     id="defs2" />
  <sodipodi:namedview
     id="base"
     pagecolor="#ffffff"
     bordercolor="#666666"
     borderopacity="1.0"
     inkscape:pageopacity="0.0"
     inkscape:pageshadow="2"
     inkscape:zoom="0.12374369"
     inkscape:cx="1990.0853"
     inkscape:cy="3447.8581"
     inkscape:document-units="mm"
     inkscape:current-layer="layer1"
     showgrid="false"
     units="in"
     inkscape:window-width="3440"
     inkscape:window-height="1377"
     inkscape:window-x="725"
     inkscape:window-y="760"
     inkscape:window-maximized="1" />
  <metadata
     id="metadata5">
    <rdf:RDF>
      <cc:Work
         rdf:about="">
        <dc:format>image/svg+xml</dc:format>
        <dc:type
           rdf:resource="http://purl.org/dc/dcmitype/StillImage" />
        <dc:title></dc:title>
      </cc:Work>
    </rdf:RDF>
  </metadata>
  <g
     inkscape:label="Layer 1"
     inkscape:groupmode="layer"
     id="layer1"
     transform="translate(0,1531.8)">
    <g
       id="text817-3"
       style="font-style:normal;font-weight:normal;font-size:104.52619171px;line-height:1.25;font-family:sans-serif;letter-spacing:0px;word-spacing:0px;fill:#000000;fill-opacity:1;stroke:none;stroke-width:2.61315489"
       aria-label="2"
       transform="matrix(1.3186116,0,0,1.3186116,6.6586108,60.069092)">
      <path
         inkscape:connector-curvature="0"
         id="path831"
         style="font-style:normal;font-variant:normal;font-weight:normal;font-stretch:normal;font-family:BodoniXT;-inkscape-font-specification:BodoniXT;stroke-width:2.61315489"
         d="m 135.41429,-191.83505 q 0,-7.31683 -5.64441,-12.33409 -5.74894,-4.80821 -14.32009,-4.80821 -8.46662,0 -14.32009,4.91273 -5.748941,4.80821 -5.748941,12.02052 0,3.24031 1.672419,5.95799 1.776945,2.82221 5.539892,2.92673 5.95799,0.20906 6.48062,-5.33083 v -0.83621 q 0,-4.70368 -5.43536,-5.12179 -0.83621,0 -2.92674,0.52264 l -0.62715,0.10452 q -1.358843,0 -1.463369,-1.56789 0,-3.972 3.762939,-7.00326 3.76295,-2.92673 8.57115,-2.92673 5.01726,0 8.67568,4.3901 3.44936,4.28557 3.44936,10.97525 0,8.88473 -3.44936,14.32009 -1.77695,2.71768 -3.972,5.43536 -2.09052,2.71768 -4.8082,5.33084 l -17.664931,16.51513 v 6.79421 h 41.287841 l 0.62716,-19.33735 h -2.4041 q 0,5.74894 -1.14979,7.83947 -1.04526,1.98599 -4.07652,1.98599 h -27.17681 l 23.30934,-20.59166 q 3.86747,-3.44936 7.94399,-8.15304 3.86747,-4.49463 3.86747,-12.02051 z" />
    </g>
  </g>
</svg>
