<?xml version="1.0" encoding="UTF-8" standalone="no"?>
<!-- Created with Inkscape (http://www.inkscape.org/) -->

<svg
   xmlns:dc="http://purl.org/dc/elements/1.1/"
   xmlns:cc="http://creativecommons.org/ns#"
   xmlns:rdf="http://www.w3.org/1999/02/22-rdf-syntax-ns#"
   xmlns:svg="http://www.w3.org/2000/svg"
   xmlns="http://www.w3.org/2000/svg"
   xmlns:sodipodi="http://sodipodi.sourceforge.net/DTD/sodipodi-0.dtd"
   xmlns:inkscape="http://www.inkscape.org/namespaces/inkscape"
   width="9in"
   height="72in"
   viewBox="0 0 228.6 1828.8001"
   version="1.1"
   id="svg8"
   inkscape:version="0.92.3 (2405546, 2018-03-11)"
   sodipodi:docname="KidWallRulerHeader.svg">
  <defs
     id="defs2" />
  <sodipodi:namedview
     id="base"
     pagecolor="#ffffff"
     bordercolor="#666666"
     borderopacity="1.0"
     inkscape:pageopacity="0.0"
     inkscape:pageshadow="2"
     inkscape:zoom="0.12374369"
     inkscape:cx="1807.3528"
     inkscape:cy="3297.7279"
     inkscape:document-units="mm"
     inkscape:current-layer="layer1"
     showgrid="false"
     units="in"
     inkscape:window-width="3440"
     inkscape:window-height="1377"
     inkscape:window-x="725"
     inkscape:window-y="760"
     inkscape:window-maximized="1" />
  <metadata
     id="metadata5">
    <rdf:RDF>
      <cc:Work
         rdf:about="">
        <dc:format>image/svg+xml</dc:format>
        <dc:type
           rdf:resource="http://purl.org/dc/dcmitype/StillImage" />
        <dc:title></dc:title>
      </cc:Work>
    </rdf:RDF>
  </metadata>
  <g
     inkscape:label="Layer 1"
     inkscape:groupmode="layer"
     id="layer1"
     transform="translate(0,1531.8)">
    <g
       id="g872"
       transform="matrix(1.0069302,0,0,1.0069302,-0.16819477,10.168773)">
      <g
         aria-label="The"
         transform="rotate(-90)"
         style="font-style:normal;font-weight:normal;font-size:16.86395264px;line-height:1.25;font-family:sans-serif;letter-spacing:0px;word-spacing:0px;fill:#000000;fill-opacity:1;stroke:none;stroke-width:0.42159876"
         id="text826">
        <path
           d="m 1500.8849,28.131611 -0.1855,-3.608886 h -9.663 l -0.1855,3.608886 h 0.5396 q 0.2867,-1.956218 1.0456,-2.580185 0.7757,-0.607102 1.9056,-0.607102 h 0.4722 v 10.421923 h -1.7707 v 0.421599 h 5.6831 v -0.421599 h -1.7707 V 24.944324 h 0.4385 q 1.1299,0 1.9056,0.623966 0.7589,0.590239 1.0456,2.563321 z"
           style="font-style:normal;font-variant:normal;font-weight:normal;font-stretch:normal;font-family:BodoniXT;-inkscape-font-specification:BodoniXT;stroke-width:0.42159876"
           id="path874" />
        <path
           d="m 1510.6149,35.787846 v -0.421599 h -1.113 v -5.126642 q 0,-1.652667 -0.4891,-2.529593 -0.489,-0.860061 -1.6189,-0.860061 -0.7083,0 -1.3829,0.371007 -0.6745,0.354143 -1.113,1.247932 v -4.199124 q -0.489,0.08432 -0.8769,0.134912 -0.371,0.05059 -0.6408,0.08432 -0.2699,0.01686 -0.6577,0.03373 -0.371,0 -0.8601,0 v 0.421599 h 1.2142 v 10.421923 h -1.1467 v 0.421599 h 3.9799 v -0.421599 h -1.0119 V 31.45381 q 0,-1.922491 0.5903,-2.968056 0.5733,-1.028701 1.2816,-1.028701 0.5565,0 0.742,0.708286 0.1687,0.657694 0.1687,2.00681 v 5.194098 h -1.0625 v 0.421599 z"
           style="font-style:normal;font-variant:normal;font-weight:normal;font-stretch:normal;font-family:BodoniXT;-inkscape-font-specification:BodoniXT;stroke-width:0.42159876"
           id="path876" />
        <path
           d="m 1517.8435,32.600559 h -0.4216 q -0.084,0.505918 -0.3036,1.028701 -0.2023,0.505918 -0.5228,1.028701 -0.6408,1.045565 -1.6695,1.045565 -0.8263,0 -1.1467,-0.80947 -0.3373,-0.826334 -0.3373,-2.293497 v -1.61894 h 4.1991 q 0.1181,0 0.1181,-0.118048 0.017,-0.06745 0.017,-0.134911 0.017,-0.08432 0.017,-0.185504 0,-1.534619 -0.8769,-2.613912 -0.8601,-1.079293 -2.0912,-1.079293 -1.3997,0 -2.3947,1.399708 -0.9949,1.399708 -0.9949,3.355926 0,1.770715 0.9781,3.102968 0.9781,1.332252 2.2429,1.332252 1.113,0 1.9899,-0.843198 0.8432,-0.843197 1.1974,-2.597048 z m -1.9225,-3.204151 -0.034,1.163612 h -2.4453 v -0.303551 q 0,-1.500892 0.2529,-2.293497 0.2193,-0.775742 1.0119,-0.775742 0.6071,0 0.9106,0.590238 0.3205,0.623966 0.3036,1.61894 z"
           style="font-style:normal;font-variant:normal;font-weight:normal;font-stretch:normal;font-family:BodoniXT;-inkscape-font-specification:BodoniXT;stroke-width:0.42159876"
           id="path878" />
      </g>
      <g
         aria-label="LOIDOLT"
         style="font-style:normal;font-weight:normal;font-size:40.77587509px;line-height:1.25;font-family:sans-serif;letter-spacing:0px;word-spacing:0px;fill:#000000;fill-opacity:1;stroke:none;stroke-width:1.0193969"
         id="text826-1">
        <path
           d="m 62.509433,-1499.9456 h -1.264052 q -0.122328,3.8737 -1.87569,5.9941 -1.712587,2.1611 -5.423192,2.1611 h -5.260088 v -25.1995 h 4.240691 v -1.0194 H 39.471064 v 1.0194 h 4.036811 v 25.1995 h -4.036811 v 1.0194 h 22.589834 z"
           style="font-style:normal;font-variant:normal;font-weight:normal;font-stretch:normal;font-family:BodoniXT;-inkscape-font-specification:BodoniXT;stroke-width:1.0193969"
           id="path881" />
        <path
           d="m 88.910856,-1504.3901 q 0,-5.7494 -3.832932,-9.9901 -3.873708,-4.2407 -8.889141,-4.2407 -5.056208,0 -8.889141,4.2814 -3.792156,4.2407 -3.792156,9.9494 0,5.7494 3.832932,9.9901 3.792157,4.2406 8.848365,4.2406 5.015433,0 8.889141,-4.2814 3.832932,-4.1999 3.832932,-9.9493 z m -5.994053,4.8523 q 0,4.0776 -1.671811,6.2387 -1.631035,2.1203 -5.056209,2.1203 -3.425173,0 -5.056208,-2.1203 -1.631035,-2.1203 -1.631035,-6.2387 v -9.7047 q 0,-4.1183 1.631035,-6.2387 1.631035,-2.1203 5.056208,-2.1203 3.384398,0 5.096984,2.1203 1.631036,2.2019 1.631036,6.2387 z"
           style="font-style:normal;font-variant:normal;font-weight:normal;font-stretch:normal;font-family:BodoniXT;-inkscape-font-specification:BodoniXT;stroke-width:1.0193969"
           id="path883" />
        <path
           d="m 101.43192,-1490.771 v -1.0194 h -4.036813 v -25.1995 h 4.036813 v -1.0194 H 88.138983 v 1.0194 h 4.036812 v 25.1995 h -4.036812 v 1.0194 z"
           style="font-style:normal;font-variant:normal;font-weight:normal;font-stretch:normal;font-family:BodoniXT;-inkscape-font-specification:BodoniXT;stroke-width:1.0193969"
           id="path885" />
        <path
           d="m 130.12475,-1504.3494 q 0,-5.9532 -3.7106,-9.7862 -3.66983,-3.8737 -10.27552,-3.8737 h -12.35509 v 1.0194 h 4.03681 v 25.1995 h -4.03681 v 1.0194 h 11.86578 q 7.50276,0 10.96871,-3.9553 3.50672,-3.9552 3.50672,-9.6231 z m -5.58629,-0.8155 q 0,7.1358 -1.79414,10.2755 -1.75336,3.099 -6.97267,3.099 h -2.77276 v -25.1995 h 1.83491 q 6.11638,0 7.9513,2.4058 1.75336,2.4465 1.75336,9.4192 z"
           style="font-style:normal;font-variant:normal;font-weight:normal;font-stretch:normal;font-family:BodoniXT;-inkscape-font-specification:BodoniXT;stroke-width:1.0193969"
           id="path887" />
        <path
           d="m 158.27763,-1504.3901 q 0,-5.7494 -3.83293,-9.9901 -3.87371,-4.2407 -8.88914,-4.2407 -5.05621,0 -8.88914,4.2814 -3.79216,4.2407 -3.79216,9.9494 0,5.7494 3.83293,9.9901 3.79216,4.2406 8.84837,4.2406 5.01543,0 8.88914,-4.2814 3.83293,-4.1999 3.83293,-9.9493 z m -5.99405,4.8523 q 0,4.0776 -1.67181,6.2387 -1.63104,2.1203 -5.05621,2.1203 -3.42517,0 -5.05621,-2.1203 -1.63103,-2.1203 -1.63103,-6.2387 v -9.7047 q 0,-4.1183 1.63103,-6.2387 1.63104,-2.1203 5.05621,-2.1203 3.3844,0 5.09698,2.1203 1.63104,2.2019 1.63104,6.2387 z"
           style="font-style:normal;font-variant:normal;font-weight:normal;font-stretch:normal;font-family:BodoniXT;-inkscape-font-specification:BodoniXT;stroke-width:1.0193969"
           id="path889" />
        <path
           d="m 180.53648,-1499.9456 h -1.26405 q -0.12233,3.8737 -1.87569,5.9941 -1.71259,2.1611 -5.42319,2.1611 h -5.26009 v -25.1995 h 4.24069 v -1.0194 h -13.45604 v 1.0194 h 4.03681 v 25.1995 h -4.03681 v 1.0194 h 22.58983 z"
           style="font-style:normal;font-variant:normal;font-weight:normal;font-stretch:normal;font-family:BodoniXT;-inkscape-font-specification:BodoniXT;stroke-width:1.0193969"
           id="path891" />
        <path
           d="m 200.84605,-1509.2832 -0.44854,-8.7261 h -23.36457 l -0.44854,8.7261 h 1.30483 q 0.69319,-4.73 2.5281,-6.2388 1.87569,-1.4679 4.60768,-1.4679 h 1.14172 v 25.1995 h -4.28146 v 1.0194 h 13.74147 v -1.0194 h -4.28147 v -25.1995 h 1.06017 q 2.73199,0 4.60768,1.5087 1.83491,1.4272 2.5281,6.198 z"
           style="font-style:normal;font-variant:normal;font-weight:normal;font-stretch:normal;font-family:BodoniXT;-inkscape-font-specification:BodoniXT;stroke-width:1.0193969"
           id="path893" />
      </g>
      <g
         aria-label="Family"
         style="font-style:normal;font-weight:normal;font-size:23.43993568px;line-height:1.25;font-family:sans-serif;letter-spacing:0px;word-spacing:0px;fill:#000000;fill-opacity:1;stroke:none;stroke-width:0.58599836"
         id="text826-1-6">
        <path
           d="m 147.61726,-1483.6703 -0.16408,-4.7818 h -12.98573 v 0.586 h 2.32056 v 14.4859 h -2.32056 v 0.586 h 7.61798 v -0.586 h -2.32055 v -7.1726 h 0.63288 q 1.80487,0 2.39087,0.9376 0.56256,0.9141 0.56256,2.1565 h 0.65632 v -6.5398 h -0.65632 q 0,1.1486 -0.586,2.0159 -0.56256,0.8438 -2.36743,0.8438 h -0.63288 v -6.7273 h 2.76591 q 1.96896,0 2.92999,0.797 0.98448,0.8438 1.50016,3.3988 z"
           style="font-style:normal;font-variant:normal;font-weight:normal;font-stretch:normal;font-family:BodoniXT;-inkscape-font-specification:BodoniXT;stroke-width:0.58599836"
           id="path896" />
        <path
           d="m 157.81015,-1473.6849 -0.28128,-0.3282 q -0.0469,0.047 -0.16408,0.1407 -0.0938,0.07 -0.21096,0.1875 -0.25784,0.211 -0.44536,0.211 -0.25784,0 -0.42192,-0.1407 -0.14064,-0.094 -0.14064,-0.3281 v -8.3915 q 0,-1.2892 -1.07823,-2.0862 -1.12512,-0.797 -2.71903,-0.797 -1.71112,0 -2.76592,0.7032 -1.05479,0.7267 -1.03135,1.7346 0.0234,1.0548 1.14855,1.0548 1.10168,0 1.19544,-1.0079 0,-0.4923 -0.21096,-0.8907 -0.18752,-0.3751 -0.18752,-0.422 0,-0.2109 0.53912,-0.4688 0.49224,-0.2344 1.14856,-0.2344 0.53911,0 1.07823,0.422 0.49224,0.4219 0.49224,1.0313 v 3.8207 q -0.30472,0 -0.60944,0 -0.28128,0 -0.586,0.024 -0.30471,0.023 -0.58599,0.047 -0.28128,0.024 -0.53912,0.07 -1.57048,0.2812 -2.55496,1.2892 -0.98447,0.9844 -0.98447,2.6252 0,1.2892 0.63288,2.1565 0.63287,0.8438 1.78143,0.8438 0.86728,0 1.78144,-0.3984 0.84383,-0.3751 1.66423,-1.2658 0.0703,0.6563 0.53912,1.172 0.42192,0.4688 1.31264,0.4688 0.77351,0 1.26575,-0.3516 0.49224,-0.375 0.9376,-0.8907 z m -4.05511,-3.2582 q 0,1.3127 -0.53912,2.344 -0.51568,1.008 -1.38295,1.008 -0.77352,0 -1.12512,-0.7267 -0.3516,-0.7266 -0.3516,-1.8283 0,-1.1486 0.44536,-1.8049 0.42192,-0.6563 1.21888,-0.8673 0.3516,-0.07 0.60943,-0.07 0.21096,0 0.39848,0.07 0.37504,0.1641 0.72664,0.422 z"
           style="font-style:normal;font-variant:normal;font-weight:normal;font-stretch:normal;font-family:BodoniXT;-inkscape-font-specification:BodoniXT;stroke-width:0.58599836"
           id="path898" />
        <path
           d="m 176.39747,-1472.7942 v -0.586 h -1.54704 v -7.1257 q 0,-2.4143 -0.58599,-3.5629 -0.586,-1.1486 -2.2268,-1.1486 -1.10167,0 -1.92207,0.6095 -0.75008,0.586 -1.14856,1.3361 -0.30472,-0.8673 -0.96104,-1.4064 -0.60944,-0.5392 -1.85175,-0.5392 -0.91416,0 -1.78144,0.5157 -0.84383,0.4923 -1.40639,1.7346 v -2.2268 l -4.07855,0.1172 v 0.586 h 1.59391 v 11.1105 h -1.59391 v 0.586 h 5.43806 v -0.586 h -1.31263 v -6.4929 q 0,-2.0158 0.77351,-3.2581 0.77352,-1.2423 1.2892,-1.2423 h 0.18752 q 0.72664,0 0.9376,0.6563 0.21096,0.6798 0.21096,2.0158 v 8.3212 h -1.19544 v 0.586 h 5.01615 v -0.586 h -1.2892 v -6.3757 q 0,-2.3205 0.72664,-3.4691 0.7032,-1.1485 1.54703,-1.1485 h 0.18752 q 0.63288,0 0.77352,0.6563 0.14064,0.6798 0.14064,2.0158 v 8.3212 h -1.21888 v 0.586 z"
           style="font-style:normal;font-variant:normal;font-weight:normal;font-stretch:normal;font-family:BodoniXT;-inkscape-font-specification:BodoniXT;stroke-width:0.58599836"
           id="path900" />
        <path
           d="m 182.17377,-1487.5613 q 0,-0.5392 -0.39848,-0.9376 -0.39848,-0.3985 -0.9376,-0.3985 -0.53912,0 -0.9376,0.3985 -0.39848,0.3984 -0.39848,0.961 0,0.5391 0.39848,0.9376 0.39848,0.3985 0.9376,0.3985 0.53912,0 0.9376,-0.3985 0.39848,-0.3985 0.39848,-0.961 z m 1.64079,14.7671 v -0.586 h -1.71111 v -11.8137 l -4.21919,0.1172 v 0.586 h 1.68767 v 11.1105 h -1.75799 v 0.586 z"
           style="font-style:normal;font-variant:normal;font-weight:normal;font-stretch:normal;font-family:BodoniXT;-inkscape-font-specification:BodoniXT;stroke-width:0.58599836"
           id="path902" />
        <path
           d="m 190.36181,-1472.7942 v -0.586 h -1.71111 v -15.4235 q -0.67976,0.1172 -1.21888,0.1876 -0.51568,0.07 -0.89072,0.1172 -0.37504,0.023 -0.91416,0.047 -0.51567,0 -1.19543,0 v 0.586 h 1.68767 v 14.4859 h -1.75799 v 0.586 z"
           style="font-style:normal;font-variant:normal;font-weight:normal;font-stretch:normal;font-family:BodoniXT;-inkscape-font-specification:BodoniXT;stroke-width:0.58599836"
           id="path904" />
        <path
           d="m 200.84605,-1484.4907 v -0.586 h -3.70351 v 0.586 h 1.68768 l -2.22679,7.407 -2.60184,-7.407 h 1.50016 v -0.586 H 190.134 v 0.586 h 1.14856 l 4.12543,11.0636 -0.53912,2.1331 q -0.39848,0.8907 -0.63288,1.4064 -0.2344,0.5156 -0.32816,0.6797 -0.18752,0.2813 -0.28128,0.2813 -0.0938,0 -0.16408,-0.094 -0.0234,-0.07 -0.1172,-0.164 -0.42191,-0.5157 -0.98447,-0.5157 -0.0938,0 -0.18752,0 -0.0938,0.023 -0.21096,0.047 -0.84384,0.2109 -0.84384,1.1251 0,0.586 0.42192,0.8907 0.44536,0.3282 0.86728,0.3282 0.86727,0 1.61735,-0.9611 0.37504,-0.4688 0.7032,-1.0548 0.32816,-0.5625 0.53912,-1.2657 l 4.26607,-13.8999 z"
           style="font-style:normal;font-variant:normal;font-weight:normal;font-stretch:normal;font-family:BodoniXT;-inkscape-font-specification:BodoniXT;stroke-width:0.58599836"
           id="path906" />
      </g>
    </g>
  </g>
</svg>
