<?xml version="1.0" encoding="UTF-8" standalone="no"?>
<!-- Created with Inkscape (http://www.inkscape.org/) -->

<svg
   xmlns:dc="http://purl.org/dc/elements/1.1/"
   xmlns:cc="http://creativecommons.org/ns#"
   xmlns:rdf="http://www.w3.org/1999/02/22-rdf-syntax-ns#"
   xmlns:svg="http://www.w3.org/2000/svg"
   xmlns="http://www.w3.org/2000/svg"
   xmlns:sodipodi="http://sodipodi.sourceforge.net/DTD/sodipodi-0.dtd"
   xmlns:inkscape="http://www.inkscape.org/namespaces/inkscape"
   width="9in"
   height="72in"
   viewBox="0 0 228.6 1828.8001"
   version="1.1"
   id="svg8"
   inkscape:version="0.92.3 (2405546, 2018-03-11)"
   sodipodi:docname="KidWallRuler.svg">
  <defs
     id="defs2" />
  <sodipodi:namedview
     id="base"
     pagecolor="#ffffff"
     bordercolor="#666666"
     borderopacity="1.0"
     inkscape:pageopacity="0.0"
     inkscape:pageshadow="2"
     inkscape:zoom="0.49497476"
     inkscape:cx="1100.3783"
     inkscape:cy="6119.8564"
     inkscape:document-units="mm"
     inkscape:current-layer="layer1"
     showgrid="false"
     units="in"
     inkscape:window-width="3440"
     inkscape:window-height="1377"
     inkscape:window-x="725"
     inkscape:window-y="760"
     inkscape:window-maximized="1" />
  <metadata
     id="metadata5">
    <rdf:RDF>
      <cc:Work
         rdf:about="">
        <dc:format>image/svg+xml</dc:format>
        <dc:type
           rdf:resource="http://purl.org/dc/dcmitype/StillImage" />
        <dc:title></dc:title>
      </cc:Work>
    </rdf:RDF>
  </metadata>
  <g
     inkscape:label="Layer 1"
     inkscape:groupmode="layer"
     id="layer1"
     transform="translate(0,1531.8)">
    <g
       id="text817"
       style="font-style:normal;font-weight:normal;font-size:104.52619171px;line-height:1.25;font-family:sans-serif;letter-spacing:0px;word-spacing:0px;fill:#000000;fill-opacity:1;stroke:none;stroke-width:2.61315465"
       aria-label="1"
       transform="matrix(1.3186116,0,0,1.3186116,5.7427658,-37.928736)">
      <path
         inkscape:connector-curvature="0"
         id="path828"
         style="font-style:normal;font-variant:normal;font-weight:normal;font-stretch:normal;font-family:BodoniXT;-inkscape-font-specification:BodoniXT;stroke-width:2.61315465"
         d="m 132.53982,166.01978 v -2.61316 H 120.41478 V 98.600382 l -10.34809,0.836209 q -4.70368,0.313579 -14.00651,0.313579 v 2.61315 h 8.98925 q 2.61316,0 3.34484,0.83621 0.73168,0.94074 0.73168,3.76295 v 56.44414 H 96.687337 v 2.61316 z" />
    </g>
    <g
       id="text817-3"
       style="font-style:normal;font-weight:normal;font-size:104.52619171px;line-height:1.25;font-family:sans-serif;letter-spacing:0px;word-spacing:0px;fill:#000000;fill-opacity:1;stroke:none;stroke-width:2.61315489"
       aria-label="2"
       transform="matrix(1.3186116,0,0,1.3186116,6.6586108,60.069092)">
      <path
         inkscape:connector-curvature="0"
         id="path831"
         style="font-style:normal;font-variant:normal;font-weight:normal;font-stretch:normal;font-family:BodoniXT;-inkscape-font-specification:BodoniXT;stroke-width:2.61315489"
         d="m 135.41429,-191.83505 q 0,-7.31683 -5.64441,-12.33409 -5.74894,-4.80821 -14.32009,-4.80821 -8.46662,0 -14.32009,4.91273 -5.748941,4.80821 -5.748941,12.02052 0,3.24031 1.672419,5.95799 1.776945,2.82221 5.539892,2.92673 5.95799,0.20906 6.48062,-5.33083 v -0.83621 q 0,-4.70368 -5.43536,-5.12179 -0.83621,0 -2.92674,0.52264 l -0.62715,0.10452 q -1.358843,0 -1.463369,-1.56789 0,-3.972 3.762939,-7.00326 3.76295,-2.92673 8.57115,-2.92673 5.01726,0 8.67568,4.3901 3.44936,4.28557 3.44936,10.97525 0,8.88473 -3.44936,14.32009 -1.77695,2.71768 -3.972,5.43536 -2.09052,2.71768 -4.8082,5.33084 l -17.664931,16.51513 v 6.79421 h 41.287841 l 0.62716,-19.33735 h -2.4041 q 0,5.74894 -1.14979,7.83947 -1.04526,1.98599 -4.07652,1.98599 h -27.17681 l 23.30934,-20.59166 q 3.86747,-3.44936 7.94399,-8.15304 3.86747,-4.49463 3.86747,-12.02051 z" />
    </g>
    <g
       id="text817-3-7"
       style="font-style:normal;font-weight:normal;font-size:104.52619171px;line-height:1.25;font-family:sans-serif;letter-spacing:0px;word-spacing:0px;fill:#000000;fill-opacity:1;stroke:none;stroke-width:2.61315489"
       aria-label="3"
       transform="matrix(1.2866936,0,0,1.2866936,9.6481888,143.49182)">
      <path
         inkscape:connector-curvature="0"
         id="path834"
         style="font-style:normal;font-variant:normal;font-weight:normal;font-stretch:normal;font-family:BodoniXT;-inkscape-font-specification:BodoniXT;stroke-width:2.61315489"
         d="m 135.46758,-467.21926 q 0,-7.63042 -5.33084,-12.33409 -5.22631,-4.80821 -16.93324,-5.85347 10.45262,-2.61316 14.84272,-6.89873 4.28557,-4.28557 4.28557,-10.13904 0,-6.3761 -5.64441,-10.66167 -5.74894,-4.28558 -14.21556,-4.28558 -6.48063,0 -11.28883,3.34484 -4.808207,3.44937 -4.703681,7.94399 0.209052,6.16705 5.435361,6.16705 h 0.41811 q 4.70367,0 5.22631,-4.70368 0,-2.71768 -2.19505,-4.49463 -2.19505,-1.56789 -2.19505,-2.4041 0,-0.83621 2.50862,-2.29958 2.29958,-1.25431 5.22631,-1.25431 5.01726,0 7.42136,3.13579 2.29958,2.92673 2.29958,8.88472 0,7.31684 -3.34484,11.91599 -3.13578,4.18105 -8.88473,4.3901 l -5.64441,0.20905 q -1.77694,0 -2.19505,1.35884 -0.10453,0.20905 -0.10453,0.41811 0,0.73168 0.52264,0.94073 0.52263,0.10453 1.67241,0.10453 h 3.24032 q 8.88472,0 13.06577,4.18105 4.07652,4.07652 4.07652,12.96124 0,7.31684 -3.55389,11.49788 -3.44936,4.28558 -9.61641,4.28558 -3.86747,0 -6.68967,-1.25432 -2.82221,-1.04526 -2.82221,-2.92673 0,-0.62716 2.4041,-2.4041 2.29958,-1.5679 2.50863,-4.59915 -0.31358,-5.43537 -5.330837,-5.43537 h -0.627157 q -5.853467,0 -6.167045,7.10778 -0.104526,4.91274 5.121783,8.57115 5.017256,3.44937 12.229566,3.44937 10.34809,0 17.76945,-5.53989 7.21231,-5.33084 7.21231,-13.37935 z" />
    </g>
    <g
       id="text817-3-7-4"
       style="font-style:normal;font-weight:normal;font-size:104.52619171px;line-height:1.25;font-family:sans-serif;letter-spacing:0px;word-spacing:0px;fill:#000000;fill-opacity:1;stroke:none;stroke-width:2.61315489"
       aria-label="4"
       transform="matrix(1.3186118,0,0,1.3186118,7.6077358,256.0649)">
      <path
         inkscape:connector-curvature="0"
         id="path837"
         style="font-style:normal;font-variant:normal;font-weight:normal;font-stretch:normal;font-family:BodoniXT;-inkscape-font-specification:BodoniXT;stroke-width:2.61315489"
         d="m 138.39329,-766.64349 v -18.50114 h -2.71768 v 7.73494 h -7.52589 v -46.7232 h -7.52589 l -30.417118,46.7232 v 2.92674 h 26.654178 v 15.15629 h -7.83946 v 2.61316 h 26.96775 v -2.61316 h -7.83946 v -15.15629 h 7.52589 v 7.83946 z m -21.5324,-10.7662 H 93.865128 l 22.995762,-35.32985 z" />
    </g>
    <g
       id="text817-3-7-8"
       style="font-style:normal;font-weight:normal;font-size:104.52619171px;line-height:1.25;font-family:sans-serif;letter-spacing:0px;word-spacing:0px;fill:#000000;fill-opacity:1;stroke:none;stroke-width:2.61315489"
       aria-label="5"
       transform="matrix(1.2344033,0,0,1.2344033,14.460112,263.90144)">
      <path
         inkscape:connector-curvature="0"
         id="path840"
         style="font-style:normal;font-variant:normal;font-weight:normal;font-stretch:normal;font-family:BodoniXT;-inkscape-font-specification:BodoniXT;stroke-width:2.61315489"
         d="m 135.22017,-1083.4194 q 0,-9.1983 -6.3761,-14.6337 -6.37609,-5.5398 -16.30608,-5.5398 -1.67242,0 -3.24032,0.1045 -1.56789,0.1045 -3.03125,0.3136 -3.13579,0.3135 -5.74895,1.2543 l 0.83621,-19.3374 h 14.00651 q 8.04852,0 11.70694,-2.5086 3.55389,-2.5086 3.55389,-10.2436 h -2.29958 q 0,1.4634 -0.94073,2.1951 -1.14979,0.7317 -2.61316,0.7317 H 98.845056 l -1.463367,32.194 q 0,0.9408 0.418105,0.9408 0.627157,0 1.776945,-0.3136 2.090521,-1.2543 4.181051,-1.777 1.14978,-0.209 2.29957,-0.3135 1.25432,-0.2091 2.61316,-0.2091 7.21231,0 10.7662,4.4946 3.65841,4.5992 3.65841,12.8568 0,9.3028 -3.34484,14.2155 -3.24031,4.8082 -10.55714,4.8082 -3.55389,0 -6.3761,-1.1498 -2.71768,-0.9407 -2.71768,-2.8222 0,-0.9407 2.4041,-2.4041 2.61316,-1.3588 2.61316,-3.972 -0.10453,-6.3761 -5.330838,-6.3761 h -0.418105 q -5.644415,0 -5.957993,6.4807 -0.209053,3.0312 1.045262,5.3308 1.254314,2.195 3.55389,3.8675 4.494624,3.2403 12.229564,3.2403 11.49788,0 18.29208,-5.6444 6.68968,-5.6445 6.68968,-15.7835 z" />
    </g>
    <g
       id="text817-3-7-8-4"
       style="font-style:normal;font-weight:normal;font-size:104.52619171px;line-height:1.25;font-family:sans-serif;letter-spacing:0px;word-spacing:0px;fill:#000000;fill-opacity:1;stroke:none;stroke-width:2.61315489"
       aria-label="6"
       transform="matrix(1.2770346,0,0,1.2770346,10.952867,394.71802)">
      <path
         inkscape:connector-curvature="0"
         id="path843"
         style="font-style:normal;font-variant:normal;font-weight:normal;font-stretch:normal;font-family:BodoniXT;-inkscape-font-specification:BodoniXT;stroke-width:2.61315489"
         d="m 136.92992,-1392.512 q 0,-8.9893 -5.64441,-15.4699 -5.43536,-6.3761 -13.69293,-6.3761 -4.59916,0 -8.57115,2.0905 -2.29958,1.2543 -4.28557,3.0313 1.98599,-10.7662 6.06251,-16.5152 6.79421,-9.4073 21.74145,-12.334 v -2.2996 q -15.78345,0.6271 -28.43112,12.4386 -12.438619,11.6024 -12.438619,28.3266 0,13.4839 6.898729,21.1143 6.7942,7.7349 15.78345,7.7349 9.09378,0 15.88799,-6.4806 6.68967,-6.2716 6.68967,-15.2608 z m -12.54314,-2.7177 q 0,11.2888 -1.77695,16.9332 -1.77694,5.5399 -7.63041,5.5399 -7.10778,0 -8.98925,-5.3308 -1.88147,-5.3308 -1.88147,-20.9052 0,-1.986 0,-3.4494 0.10452,-1.5679 0.20905,-2.6132 2.50863,-3.3448 4.80821,-4.7036 3.24031,-1.986 6.7942,-1.986 4.49462,0 6.58515,4.2855 1.88147,4.2856 1.88147,12.2296 z" />
    </g>
    <g
       id="g872"
       transform="matrix(1.0069302,0,0,1.0069302,-0.16819477,10.168773)">
      <text
         inkscape:export-ydpi="299.97821"
         inkscape:export-xdpi="299.97821"
         transform="rotate(-90)"
         id="text826"
         y="35.787846"
         x="1490.2438"
         style="font-style:normal;font-weight:normal;font-size:16.86395264px;line-height:1.25;font-family:sans-serif;letter-spacing:0px;word-spacing:0px;fill:#000000;fill-opacity:1;stroke:none;stroke-width:0.42159876"
         xml:space="preserve"><tspan
           style="font-style:normal;font-variant:normal;font-weight:normal;font-stretch:normal;font-family:BodoniXT;-inkscape-font-specification:BodoniXT;stroke-width:0.42159876"
           y="35.787846"
           x="1490.2438"
           id="tspan824"
           sodipodi:role="line">The</tspan></text>
      <text
         inkscape:export-ydpi="299.97821"
         inkscape:export-xdpi="299.97821"
         id="text826-1"
         y="-1490.771"
         x="38.533218"
         style="font-style:normal;font-weight:normal;font-size:40.77587509px;line-height:1.25;font-family:sans-serif;letter-spacing:0px;word-spacing:0px;fill:#000000;fill-opacity:1;stroke:none;stroke-width:1.0193969"
         xml:space="preserve"><tspan
           style="font-style:normal;font-variant:normal;font-weight:normal;font-stretch:normal;font-family:BodoniXT;-inkscape-font-specification:BodoniXT;stroke-width:1.0193969"
           y="-1490.771"
           x="38.533218"
           id="tspan824-6"
           sodipodi:role="line">LOIDOLT</tspan></text>
      <text
         inkscape:export-ydpi="299.97821"
         inkscape:export-xdpi="299.97821"
         id="text826-1-6"
         y="-1472.7942"
         x="133.88145"
         style="font-style:normal;font-weight:normal;font-size:23.43993568px;line-height:1.25;font-family:sans-serif;letter-spacing:0px;word-spacing:0px;fill:#000000;fill-opacity:1;stroke:none;stroke-width:0.58599836"
         xml:space="preserve"><tspan
           style="font-style:normal;font-variant:normal;font-weight:normal;font-stretch:normal;font-family:BodoniXT;-inkscape-font-specification:BodoniXT;stroke-width:0.58599836"
           y="-1472.7942"
           x="133.88145"
           id="tspan824-6-3"
           sodipodi:role="line">Family</tspan></text>
    </g>
  </g>
</svg>
