<?xml version="1.0" encoding="UTF-8" standalone="no"?>
<!-- Created with Inkscape (http://www.inkscape.org/) -->

<svg
   xmlns:dc="http://purl.org/dc/elements/1.1/"
   xmlns:cc="http://creativecommons.org/ns#"
   xmlns:rdf="http://www.w3.org/1999/02/22-rdf-syntax-ns#"
   xmlns:svg="http://www.w3.org/2000/svg"
   xmlns="http://www.w3.org/2000/svg"
   xmlns:sodipodi="http://sodipodi.sourceforge.net/DTD/sodipodi-0.dtd"
   xmlns:inkscape="http://www.inkscape.org/namespaces/inkscape"
   width="9in"
   height="72in"
   viewBox="0 0 228.6 1828.8001"
   version="1.1"
   id="svg8"
   inkscape:version="0.92.3 (2405546, 2018-03-11)"
   sodipodi:docname="KidWallRuler6.svg">
  <defs
     id="defs2" />
  <sodipodi:namedview
     id="base"
     pagecolor="#ffffff"
     bordercolor="#666666"
     borderopacity="1.0"
     inkscape:pageopacity="0.0"
     inkscape:pageshadow="2"
     inkscape:zoom="0.12374369"
     inkscape:cx="1990.0853"
     inkscape:cy="3447.8581"
     inkscape:document-units="mm"
     inkscape:current-layer="layer1"
     showgrid="false"
     units="in"
     inkscape:window-width="3440"
     inkscape:window-height="1377"
     inkscape:window-x="725"
     inkscape:window-y="760"
     inkscape:window-maximized="1" />
  <metadata
     id="metadata5">
    <rdf:RDF>
      <cc:Work
         rdf:about="">
        <dc:format>image/svg+xml</dc:format>
        <dc:type
           rdf:resource="http://purl.org/dc/dcmitype/StillImage" />
        <dc:title></dc:title>
      </cc:Work>
    </rdf:RDF>
  </metadata>
  <g
     inkscape:label="Layer 1"
     inkscape:groupmode="layer"
     id="layer1"
     transform="translate(0,1531.8)">
    <g
       id="text817-3-7-8-4"
       style="font-style:normal;font-weight:normal;font-size:104.52619171px;line-height:1.25;font-family:sans-serif;letter-spacing:0px;word-spacing:0px;fill:#000000;fill-opacity:1;stroke:none;stroke-width:2.61315489"
       aria-label="6"
       transform="matrix(1.2770346,0,0,1.2770346,10.952867,394.71802)">
      <path
         inkscape:connector-curvature="0"
         id="path843"
         style="font-style:normal;font-variant:normal;font-weight:normal;font-stretch:normal;font-family:BodoniXT;-inkscape-font-specification:BodoniXT;stroke-width:2.61315489"
         d="m 136.92992,-1392.512 q 0,-8.9893 -5.64441,-15.4699 -5.43536,-6.3761 -13.69293,-6.3761 -4.59916,0 -8.57115,2.0905 -2.29958,1.2543 -4.28557,3.0313 1.98599,-10.7662 6.06251,-16.5152 6.79421,-9.4073 21.74145,-12.334 v -2.2996 q -15.78345,0.6271 -28.43112,12.4386 -12.438619,11.6024 -12.438619,28.3266 0,13.4839 6.898729,21.1143 6.7942,7.7349 15.78345,7.7349 9.09378,0 15.88799,-6.4806 6.68967,-6.2716 6.68967,-15.2608 z m -12.54314,-2.7177 q 0,11.2888 -1.77695,16.9332 -1.77694,5.5399 -7.63041,5.5399 -7.10778,0 -8.98925,-5.3308 -1.88147,-5.3308 -1.88147,-20.9052 0,-1.986 0,-3.4494 0.10452,-1.5679 0.20905,-2.6132 2.50863,-3.3448 4.80821,-4.7036 3.24031,-1.986 6.7942,-1.986 4.49462,0 6.58515,4.2855 1.88147,4.2856 1.88147,12.2296 z" />
    </g>
  </g>
</svg>
