<?xml version="1.0" encoding="UTF-8" standalone="no"?>
<!-- Created with Inkscape (http://www.inkscape.org/) -->

<svg
   xmlns:dc="http://purl.org/dc/elements/1.1/"
   xmlns:cc="http://creativecommons.org/ns#"
   xmlns:rdf="http://www.w3.org/1999/02/22-rdf-syntax-ns#"
   xmlns:svg="http://www.w3.org/2000/svg"
   xmlns="http://www.w3.org/2000/svg"
   xmlns:sodipodi="http://sodipodi.sourceforge.net/DTD/sodipodi-0.dtd"
   xmlns:inkscape="http://www.inkscape.org/namespaces/inkscape"
   width="9in"
   height="72in"
   viewBox="0 0 228.6 1828.8001"
   version="1.1"
   id="svg8"
   inkscape:version="0.92.3 (2405546, 2018-03-11)"
   sodipodi:docname="KidWallRuler3.svg">
  <defs
     id="defs2" />
  <sodipodi:namedview
     id="base"
     pagecolor="#ffffff"
     bordercolor="#666666"
     borderopacity="1.0"
     inkscape:pageopacity="0.0"
     inkscape:pageshadow="2"
     inkscape:zoom="0.12374369"
     inkscape:cx="1990.0853"
     inkscape:cy="3447.8581"
     inkscape:document-units="mm"
     inkscape:current-layer="layer1"
     showgrid="false"
     units="in"
     inkscape:window-width="3440"
     inkscape:window-height="1377"
     inkscape:window-x="725"
     inkscape:window-y="760"
     inkscape:window-maximized="1" />
  <metadata
     id="metadata5">
    <rdf:RDF>
      <cc:Work
         rdf:about="">
        <dc:format>image/svg+xml</dc:format>
        <dc:type
           rdf:resource="http://purl.org/dc/dcmitype/StillImage" />
        <dc:title></dc:title>
      </cc:Work>
    </rdf:RDF>
  </metadata>
  <g
     inkscape:label="Layer 1"
     inkscape:groupmode="layer"
     id="layer1"
     transform="translate(0,1531.8)">
    <g
       id="text817-3-7"
       style="font-style:normal;font-weight:normal;font-size:104.52619171px;line-height:1.25;font-family:sans-serif;letter-spacing:0px;word-spacing:0px;fill:#000000;fill-opacity:1;stroke:none;stroke-width:2.61315489"
       aria-label="3"
       transform="matrix(1.2866936,0,0,1.2866936,9.6481888,143.49182)">
      <path
         inkscape:connector-curvature="0"
         id="path834"
         style="font-style:normal;font-variant:normal;font-weight:normal;font-stretch:normal;font-family:BodoniXT;-inkscape-font-specification:BodoniXT;stroke-width:2.61315489"
         d="m 135.46758,-467.21926 q 0,-7.63042 -5.33084,-12.33409 -5.22631,-4.80821 -16.93324,-5.85347 10.45262,-2.61316 14.84272,-6.89873 4.28557,-4.28557 4.28557,-10.13904 0,-6.3761 -5.64441,-10.66167 -5.74894,-4.28558 -14.21556,-4.28558 -6.48063,0 -11.28883,3.34484 -4.808207,3.44937 -4.703681,7.94399 0.209052,6.16705 5.435361,6.16705 h 0.41811 q 4.70367,0 5.22631,-4.70368 0,-2.71768 -2.19505,-4.49463 -2.19505,-1.56789 -2.19505,-2.4041 0,-0.83621 2.50862,-2.29958 2.29958,-1.25431 5.22631,-1.25431 5.01726,0 7.42136,3.13579 2.29958,2.92673 2.29958,8.88472 0,7.31684 -3.34484,11.91599 -3.13578,4.18105 -8.88473,4.3901 l -5.64441,0.20905 q -1.77694,0 -2.19505,1.35884 -0.10453,0.20905 -0.10453,0.41811 0,0.73168 0.52264,0.94073 0.52263,0.10453 1.67241,0.10453 h 3.24032 q 8.88472,0 13.06577,4.18105 4.07652,4.07652 4.07652,12.96124 0,7.31684 -3.55389,11.49788 -3.44936,4.28558 -9.61641,4.28558 -3.86747,0 -6.68967,-1.25432 -2.82221,-1.04526 -2.82221,-2.92673 0,-0.62716 2.4041,-2.4041 2.29958,-1.5679 2.50863,-4.59915 -0.31358,-5.43537 -5.330837,-5.43537 h -0.627157 q -5.853467,0 -6.167045,7.10778 -0.104526,4.91274 5.121783,8.57115 5.017256,3.44937 12.229566,3.44937 10.34809,0 17.76945,-5.53989 7.21231,-5.33084 7.21231,-13.37935 z" />
    </g>
  </g>
</svg>
